<svg xmlns="http://www.w3.org/2000/svg" viewBox="0 0 100 125" x="0px" y="0px">
    <path d="M26.91,38.25a4,4,0,1,0-5.82,5.5l6.25,6.61-6.08,5.73a4,4,0,1,0,5.48,5.82l9-8.47a4,4,0,0,0,.17-5.66Z" fill="#ffffff" stroke="#ffffff"/>
    <path d="M62,55H44a4,4,0,0,0,0,8H62a4,4,0,0,0,0-8Z" fill="#ffffff" stroke="#ffffff"/>
    <path d="M89,10H11a6,6,0,0,0-6,6V84a6,6,0,0,0,6,6H89a6,6,0,0,0,6-6V16A6,6,0,0,0,89,10ZM42.5,16A4.5,4.5,0,1,1,38,20.5,4.49,4.49,0,0,1,42.5,16Zm-12,0A4.5,4.5,0,1,1,26,20.5,4.49,4.49,0,0,1,30.5,16Zm-12,0A4.5,4.5,0,1,1,14,20.5,4.49,4.49,0,0,1,18.5,16ZM86,80a1,1,0,0,1-1,1H15a1,1,0,0,1-1-1V32a1,1,0,0,1,1-1H85a1,1,0,0,1,1,1Z" fill="#ffffff" stroke="#ffffff"/>
</svg>